<svg width="184" height="40" viewBox="0 0 184 40" fill="none" xmlns="http://www.w3.org/2000/svg">
<path d="M39.4647 0.0187988C39.4647 2.51535 38.9924 4.98743 38.0746 7.29385C37.1571 9.6005 35.812 11.6961 34.1166 13.4614C32.4209 15.2268 30.408 16.6271 28.1926 17.5825C25.9773 18.5379 23.6028 19.0297 21.2048 19.0297V0.0187988H39.4647Z" fill="url(#paint0_linear_4755_31396)"/>
<path d="M0 19.0109C0 16.5143 0.472304 14.0422 1.38994 11.7358C2.30759 9.42916 3.6526 7.33358 5.34819 5.56822C7.04377 3.80284 9.05671 2.40249 11.2721 1.44711C13.4875 0.491724 15.8619 0 18.2598 0V19.0109H0Z" fill="url(#paint1_linear_4755_31396)"/>
<path d="M0.432373 39.6534C0.432373 37.1569 0.904677 34.6848 1.82232 32.3784C2.73996 30.0717 4.08498 27.9762 5.78056 26.2108C7.47615 24.4454 9.48909 23.0451 11.7045 22.0897C13.9199 21.1343 16.2943 20.6426 18.6922 20.6426V39.6534H0.432373Z" fill="url(#paint2_linear_4755_31396)"/>
<path d="M39.4647 20.989C39.4647 23.4855 38.9924 25.9576 38.0746 28.2641C37.1571 30.5707 35.812 32.6663 34.1166 34.4316C32.4209 36.197 30.408 37.5974 28.1926 38.5527C25.9773 39.5081 23.6028 39.9999 21.2048 39.9999V20.989H39.4647Z" fill="url(#paint3_linear_4755_31396)"/>
<path d="M50.5427 22.9041C50.561 23.8174 50.6709 24.5661 50.8725 25.1507C51.0924 25.7352 51.3672 26.201 51.697 26.5479C52.0451 26.8949 52.4391 27.1325 52.8788 27.2603C53.3186 27.3881 53.7766 27.4521 54.253 27.4521C54.766 27.4521 55.2424 27.3607 55.6821 27.1781C56.1219 26.9955 56.5066 26.7123 56.8364 26.3288C57.1662 25.927 57.4228 25.4065 57.606 24.7671C57.7891 24.1278 57.8808 23.3425 57.8808 22.411C57.8808 21.516 57.7801 20.7579 57.5785 20.137C57.3953 19.4977 57.148 18.9863 56.8364 18.6027C56.5249 18.201 56.1494 17.9086 55.7096 17.726C55.2881 17.5434 54.8484 17.4521 54.3904 17.4521C53.7126 17.4521 53.1262 17.5616 52.6315 17.7808C52.155 18 51.7612 18.3106 51.4497 18.7123C51.1382 19.1141 50.9093 19.5982 50.7626 20.1644C50.616 20.7123 50.5427 21.3243 50.5427 22V22.6849V22.9041ZM50.5702 10V17.1781C51.1382 16.4292 51.7887 15.863 52.5215 15.4795C53.2728 15.0777 54.1431 14.8767 55.1325 14.8767C56.1586 14.8767 57.0471 15.0593 57.7984 15.4247C58.5496 15.79 59.1725 16.3014 59.6672 16.9589C60.1619 17.6164 60.5284 18.411 60.7666 19.3425C61.0231 20.2558 61.1513 21.2695 61.1513 22.3836C61.1513 23.5524 61.0047 24.6119 60.7116 25.5616C60.4185 26.4932 59.997 27.2877 59.4474 27.9452C58.8977 28.6027 58.2381 29.1141 57.4686 29.4795C56.699 29.8264 55.8378 30 54.8851 30C54.0239 30 53.2269 29.8356 52.4941 29.5069C51.7612 29.1781 51.0924 28.6301 50.4878 27.863V29.5616H47.4646V10H50.5702ZM70.8076 27.4795C72.1268 27.4795 73.0887 27.0319 73.6934 26.137C74.3165 25.2237 74.6278 23.9818 74.6278 22.411C74.6278 20.8585 74.3165 19.6346 73.6934 18.7397C73.0887 17.8448 72.1268 17.3973 70.8076 17.3973C69.4884 17.3973 68.5175 17.8538 67.8944 18.7671C67.2897 19.662 66.9874 20.8767 66.9874 22.411C66.9874 23.9634 67.2807 25.1963 67.8669 26.1096C68.4715 27.0229 69.4519 27.4795 70.8076 27.4795ZM70.7801 30C68.545 30 66.8135 29.3425 65.5858 28.0274C64.3582 26.7123 63.7444 24.8493 63.7444 22.4384C63.7444 21.3059 63.9003 20.274 64.2116 19.3425C64.5414 18.411 65.0086 17.6164 65.6133 16.9589C66.2179 16.3014 66.9599 15.79 67.8394 15.4247C68.7189 15.0593 69.7175 14.8767 70.8351 14.8767C71.9711 14.8767 72.9788 15.0685 73.8583 15.4521C74.7377 15.8174 75.4708 16.3288 76.057 16.9863C76.6616 17.6438 77.1105 18.4384 77.4036 19.3699C77.7152 20.2832 77.8709 21.2877 77.8709 22.3836C77.8709 23.6256 77.6969 24.7215 77.3487 25.6712C77.0006 26.6027 76.5059 27.3973 75.8646 28.0548C75.2417 28.6941 74.4996 29.1781 73.6384 29.5069C72.7774 29.8356 71.8245 30 70.7801 30ZM84.01 15.3151V17.4247C84.5047 16.6757 85.1001 16.1004 85.7965 15.6986C86.4928 15.2969 87.2348 15.0959 88.0226 15.0959C88.3342 15.0959 88.5905 15.1051 88.7921 15.1233C89.012 15.1415 89.2227 15.1689 89.4243 15.2055L89.067 18.0548C88.8654 18 88.6455 17.9634 88.4074 17.9452C88.1693 17.927 87.9219 17.9178 87.6653 17.9178C87.0789 17.9178 86.566 18.0182 86.1263 18.2192C85.6865 18.4018 85.311 18.6483 84.9994 18.9589C84.7063 19.2695 84.4773 19.6256 84.3124 20.0274C84.1657 20.411 84.0925 20.8037 84.0925 21.2055V29.5616H80.9869V15.3151H84.01ZM101.111 22.137C101.111 21.2421 101.01 20.4932 100.809 19.8904C100.626 19.2695 100.36 18.7853 100.012 18.4384C99.6819 18.073 99.2881 17.8174 98.8299 17.6712C98.3902 17.5069 97.923 17.4247 97.4283 17.4247C96.274 17.4247 95.3762 17.8356 94.7349 18.6575C94.112 19.4795 93.8005 20.7305 93.8005 22.411C93.8005 23.3243 93.8829 24.1004 94.0478 24.7397C94.2312 25.3791 94.4785 25.8996 94.7899 26.3014C95.1197 26.7031 95.4954 26.9955 95.9167 27.1781C96.3382 27.3607 96.7962 27.4521 97.2909 27.4521C98.4269 27.4521 99.3431 27.0867 100.039 26.3562C100.754 25.6072 101.111 24.4476 101.111 22.8767V22.137ZM101.139 27.589C100.552 28.3928 99.8835 28.9955 99.1322 29.3973C98.3994 29.799 97.5382 30 96.5488 30C95.5229 30 94.6342 29.8174 93.8829 29.4521C93.1318 29.0867 92.5088 28.5753 92.014 27.9178C91.5193 27.2421 91.1438 26.4476 90.8872 25.5342C90.6491 24.6027 90.5299 23.5798 90.5299 22.4658C90.5299 21.4247 90.6583 20.4566 90.9147 19.5616C91.1713 18.6483 91.5468 17.863 92.0415 17.2055C92.5362 16.5297 93.1409 15.9908 93.8554 15.589C94.5885 15.1873 95.4312 14.9681 96.3839 14.9315C96.5673 14.9133 96.7504 14.9133 96.9336 14.9315C97.1169 14.9315 97.3093 14.9407 97.5107 14.9589C98.1521 15.0319 98.7659 15.2147 99.3521 15.5069C99.9568 15.7808 100.534 16.2466 101.084 16.9041V10H104.189V29.5616H101.139V27.589ZM120.47 25.3425C120.213 26.8219 119.581 27.9726 118.573 28.7945C117.566 29.5982 116.118 30 114.231 30C111.959 30 110.228 29.3517 109.037 28.0548C107.864 26.7397 107.278 24.8949 107.278 22.5205C107.278 21.2969 107.443 20.21 107.772 19.2603C108.12 18.3106 108.597 17.516 109.202 16.8767C109.824 16.2192 110.557 15.726 111.4 15.3973C112.261 15.0503 113.205 14.8767 114.231 14.8767C115.33 14.8767 116.283 15.0503 117.089 15.3973C117.896 15.726 118.564 16.201 119.096 16.8219C119.627 17.4247 120.021 18.1552 120.277 19.0137C120.534 19.8538 120.662 20.7945 120.662 21.8356V23.2055H110.411C110.448 24.5023 110.777 25.5524 111.4 26.3562C112.023 27.1599 112.967 27.5616 114.231 27.5616C115.22 27.5616 115.962 27.3699 116.457 26.9863C116.952 26.6027 117.282 26.0548 117.447 25.3425H120.47ZM117.611 21.0411C117.611 19.8722 117.337 18.9497 116.787 18.274C116.237 17.5982 115.358 17.2603 114.149 17.2603C112.994 17.2603 112.115 17.6072 111.51 18.3014C110.906 18.9771 110.557 19.8904 110.466 21.0411H117.611ZM126.738 15.3151V17.4247C127.233 16.6757 127.828 16.1004 128.524 15.6986C129.221 15.2969 129.963 15.0959 130.751 15.0959C131.062 15.0959 131.319 15.1051 131.52 15.1233C131.74 15.1415 131.951 15.1689 132.152 15.2055L131.795 18.0548C131.594 18 131.374 17.9634 131.135 17.9452C130.897 17.927 130.65 17.9178 130.393 17.9178C129.807 17.9178 129.294 18.0182 128.854 18.2192C128.415 18.4018 128.039 18.6483 127.727 18.9589C127.434 19.2695 127.205 19.6256 127.04 20.0274C126.894 20.411 126.821 20.8037 126.821 21.2055V29.5616H123.715V15.3151H126.738ZM137.665 10V29.5616H134.532V10H137.665ZM153.965 25.3425C153.709 26.8219 153.077 27.9726 152.069 28.7945C151.061 29.5982 149.614 30 147.726 30C145.454 30 143.723 29.3517 142.532 28.0548C141.359 26.7397 140.773 24.8949 140.773 22.5205C140.773 21.2969 140.938 20.21 141.268 19.2603C141.616 18.3106 142.092 17.516 142.697 16.8767C143.32 16.2192 144.053 15.726 144.896 15.3973C145.757 15.0503 146.7 14.8767 147.726 14.8767C148.826 14.8767 149.779 15.0503 150.585 15.3973C151.391 15.726 152.06 16.201 152.591 16.8219C153.122 17.4247 153.516 18.1552 153.773 19.0137C154.029 19.8538 154.157 20.7945 154.157 21.8356V23.2055H143.906C143.943 24.5023 144.273 25.5524 144.896 26.3562C145.519 27.1599 146.462 27.5616 147.726 27.5616C148.716 27.5616 149.458 27.3699 149.953 26.9863C150.447 26.6027 150.777 26.0548 150.942 25.3425H153.965ZM151.107 21.0411C151.107 19.8722 150.832 18.9497 150.282 18.274C149.733 17.5982 148.853 17.2603 147.644 17.2603C146.49 17.2603 145.61 17.6072 145.006 18.3014C144.401 18.9771 144.053 19.8904 143.961 21.0411H151.107ZM159.354 25.2055C159.409 25.6804 159.537 26.073 159.739 26.3836C159.94 26.6757 160.188 26.9133 160.481 27.0959C160.792 27.2785 161.15 27.4065 161.553 27.4795C161.956 27.5342 162.386 27.5616 162.844 27.5616C163.889 27.5616 164.64 27.4065 165.098 27.0959C165.556 26.7853 165.785 26.3288 165.785 25.726C165.785 25.2511 165.639 24.8493 165.345 24.5205C165.071 24.1918 164.493 23.9544 163.614 23.8082C162.478 23.6072 161.479 23.4155 160.618 23.2329C159.757 23.0503 159.033 22.8037 158.447 22.4932C157.861 22.1644 157.421 21.7534 157.128 21.2603C156.835 20.7489 156.688 20.064 156.688 19.2055C156.688 18.5479 156.835 17.9544 157.128 17.4247C157.421 16.8767 157.824 16.4202 158.337 16.0548C158.868 15.6712 159.491 15.3791 160.206 15.1781C160.939 14.9771 161.736 14.8767 162.597 14.8767C163.696 14.8767 164.613 14.9863 165.345 15.2055C166.078 15.4247 166.674 15.726 167.132 16.1096C167.59 16.4932 167.938 16.9315 168.176 17.4247C168.414 17.9178 168.598 18.4384 168.726 18.9863L165.923 19.3699C165.703 18.6575 165.364 18.1278 164.906 17.7808C164.466 17.4339 163.724 17.2603 162.679 17.2603C162.075 17.2603 161.58 17.3151 161.195 17.4247C160.811 17.5342 160.499 17.6712 160.261 17.8356C160.041 18 159.885 18.1826 159.794 18.3836C159.72 18.5845 159.684 18.7853 159.684 18.9863C159.684 19.2969 159.72 19.5524 159.794 19.7534C159.867 19.9544 159.995 20.1188 160.178 20.2466C160.38 20.3744 160.646 20.484 160.975 20.5753C161.305 20.6667 161.718 20.7579 162.212 20.8493L163.999 21.1507C164.952 21.3151 165.739 21.5251 166.362 21.7808C167.004 22.0366 167.508 22.3562 167.874 22.7397C168.259 23.1051 168.524 23.5342 168.671 24.0274C168.817 24.5205 168.891 25.0685 168.891 25.6712C168.891 26.9681 168.396 28.0182 167.407 28.8219C166.417 29.6072 164.915 30 162.899 30C162.075 30 161.278 29.9178 160.508 29.7534C159.757 29.6072 159.079 29.3517 158.475 28.9863C157.87 28.6209 157.375 28.137 156.99 27.5342C156.624 26.9133 156.413 26.137 156.358 25.2055H159.354ZM173.928 25.2055C173.983 25.6804 174.111 26.073 174.313 26.3836C174.514 26.6757 174.761 26.9133 175.055 27.0959C175.366 27.2785 175.723 27.4065 176.127 27.4795C176.53 27.5342 176.96 27.5616 177.418 27.5616C178.463 27.5616 179.214 27.4065 179.672 27.0959C180.13 26.7853 180.359 26.3288 180.359 25.726C180.359 25.2511 180.212 24.8493 179.919 24.5205C179.644 24.1918 179.067 23.9544 178.188 23.8082C177.052 23.6072 176.053 23.4155 175.192 23.2329C174.331 23.0503 173.607 22.8037 173.021 22.4932C172.435 22.1644 171.995 21.7534 171.702 21.2603C171.408 20.7489 171.262 20.064 171.262 19.2055C171.262 18.5479 171.408 17.9544 171.702 17.4247C171.995 16.8767 172.398 16.4202 172.911 16.0548C173.442 15.6712 174.065 15.3791 174.78 15.1781C175.513 14.9771 176.31 14.8767 177.171 14.8767C178.27 14.8767 179.186 14.9863 179.919 15.2055C180.652 15.4247 181.247 15.726 181.706 16.1096C182.164 16.4932 182.512 16.9315 182.75 17.4247C182.988 17.9178 183.171 18.4384 183.3 18.9863L180.496 19.3699C180.277 18.6575 179.938 18.1278 179.48 17.7808C179.04 17.4339 178.298 17.2603 177.253 17.2603C176.649 17.2603 176.154 17.3151 175.769 17.4247C175.384 17.5342 175.073 17.6712 174.835 17.8356C174.615 18 174.459 18.1826 174.368 18.3836C174.294 18.5845 174.258 18.7853 174.258 18.9863C174.258 19.2969 174.294 19.5524 174.368 19.7534C174.441 19.9544 174.569 20.1188 174.752 20.2466C174.954 20.3744 175.22 20.484 175.549 20.5753C175.879 20.6667 176.291 20.7579 176.786 20.8493L178.573 21.1507C179.525 21.3151 180.313 21.5251 180.936 21.7808C181.577 22.0366 182.081 22.3562 182.448 22.7397C182.832 23.1051 183.098 23.5342 183.245 24.0274C183.391 24.5205 183.465 25.0685 183.465 25.6712C183.465 26.9681 182.97 28.0182 181.98 28.8219C180.991 29.6072 179.489 30 177.473 30C176.649 30 175.852 29.9178 175.082 29.7534C174.331 29.6072 173.653 29.3517 173.048 28.9863C172.444 28.6209 171.949 28.137 171.564 27.5342C171.198 26.9133 170.987 26.137 170.932 25.2055H173.928Z" fill="#0061D3"/>
<defs>
<linearGradient id="paint0_linear_4755_31396" x1="30.3347" y1="0.0187988" x2="30.3347" y2="19.0297" gradientUnits="userSpaceOnUse">
<stop stop-color="#0061D3"/>
<stop offset="1" stop-color="#00326D"/>
</linearGradient>
<linearGradient id="paint1_linear_4755_31396" x1="9.12991" y1="0" x2="9.12991" y2="19.0109" gradientUnits="userSpaceOnUse">
<stop stop-color="#0061D3"/>
<stop offset="1" stop-color="#00326D"/>
</linearGradient>
<linearGradient id="paint2_linear_4755_31396" x1="9.56229" y1="20.6426" x2="9.56229" y2="39.6534" gradientUnits="userSpaceOnUse">
<stop stop-color="#0061D3"/>
<stop offset="1" stop-color="#00326D"/>
</linearGradient>
<linearGradient id="paint3_linear_4755_31396" x1="30.3347" y1="20.989" x2="30.3347" y2="39.9999" gradientUnits="userSpaceOnUse">
<stop stop-color="#0061D3"/>
<stop offset="1" stop-color="#00326D"/>
</linearGradient>
</defs>
</svg>
